<?xml version="1.0" encoding="UTF-8" standalone="no"?><svg xmlns="http://www.w3.org/2000/svg" xmlns:xlink="http://www.w3.org/1999/xlink" contentStyleType="text/css" height="705px" preserveAspectRatio="none" style="width:1039px;height:705px;background:#FFFFFF80;" version="1.1" viewBox="0 0 1039 705" width="1039px" zoomAndPan="magnify"><defs/><g><!--MD5=[d4854912b7e46cb60cbc8593abcbe5fc]
cluster Python--><g id="cluster_Python"><path d="M8.5,7.188 L149.5,7.188 A3.75,3.75 0 0 1 152,9.688 L159,34.9801 L498.5,34.9801 A2.5,2.5 0 0 1 501,37.4801 L501,444.688 A2.5,2.5 0 0 1 498.5,447.188 L8.5,447.188 A2.5,2.5 0 0 1 6,444.688 L6,9.688 A2.5,2.5 0 0 1 8.5,7.188 " fill="#CCFFCC" style="stroke:#000000;stroke-width:1.5;"/><line style="stroke:#000000;stroke-width:1.5;" x1="6" x2="159" y1="34.9801" y2="34.9801"/><text fill="#000000" font-family="monospace" font-size="16" font-weight="bold" lengthAdjust="spacing" textLength="140" x="10" y="26.292">Python Classes</text></g><!--MD5=[c89d3edae81d52614039fdfcb9a3c8ef]
cluster SQL--><g id="cluster_SQL"><path d="M543.5,222.188 L644.5,222.188 A3.75,3.75 0 0 1 647,224.688 L654,249.9801 L1029.5,249.9801 A2.5,2.5 0 0 1 1032,252.4801 L1032,695.688 A2.5,2.5 0 0 1 1029.5,698.188 L543.5,698.188 A2.5,2.5 0 0 1 541,695.688 L541,224.688 A2.5,2.5 0 0 1 543.5,222.188 " fill="#FFFFCC" style="stroke:#000000;stroke-width:1.5;"/><line style="stroke:#000000;stroke-width:1.5;" x1="541" x2="654" y1="249.9801" y2="249.9801"/><text fill="#000000" font-family="monospace" font-size="16" font-weight="bold" lengthAdjust="spacing" textLength="100" x="545" y="241.292">SQL Tables</text></g><!--MD5=[3f0ef310aaa84a542276992c5216544d]
class Car--><g id="elem_Car"><rect codeLine="11" fill="#F1F1F1" height="143.3396" id="Car" rx="2.5" ry="2.5" style="stroke:#181818;stroke-width:0.5;" width="202" x="256" y="55.188"/><ellipse cx="340.75" cy="71.188" fill="#ADD1B2" rx="11" ry="11" style="stroke:#181818;stroke-width:1.0;"/><path d="M340.2188,78.1099 Q338.4688,78.1099 337.3281,77.3755 Q336.2031,76.6255 335.6406,75.2818 Q335.0938,73.9224 335.0938,72.1255 Q335.0938,70.0943 335.75,68.6411 Q336.4063,67.188 337.6875,66.4068 Q338.9688,65.6255 340.8438,65.6255 Q341.7344,65.6255 342.4063,65.813 Q343.0781,65.9849 343.7656,66.3286 L342.9531,68.3443 Q342.3281,68.0318 341.7813,67.9068 Q341.25,67.7818 340.7656,67.7818 Q339.5938,67.7818 338.8906,68.313 Q338.1875,68.8443 337.8906,69.7974 Q337.5938,70.7505 337.5938,72.0161 Q337.5938,74.0318 338.3125,75.0005 Q339.0313,75.9536 340.625,75.9536 Q341.2188,75.9536 341.8438,75.7974 Q342.4688,75.6411 343.2969,75.2661 L343.2969,77.4849 Q342.5625,77.7974 341.7656,77.9536 Q340.9844,78.1099 340.2188,78.1099 Z " fill="#000000"/><text fill="#000000" font-family="monospace" font-size="14" font-weight="bold" lengthAdjust="spacing" textLength="24" x="361.25" y="76.62">Car</text><line style="stroke:#181818;stroke-width:0.5;" x1="257" x2="457" y1="87.188" y2="87.188"/><ellipse cx="267" cy="102.222" fill="none" rx="3" ry="3" style="stroke:#038048;stroke-width:1.0;"/><text fill="#000000" font-family="monospace" font-size="14" font-weight="bold" lengthAdjust="spacing" textLength="80" x="276" y="106.1539">brand: str</text><ellipse cx="267" cy="121.2899" fill="none" rx="3" ry="3" style="stroke:#038048;stroke-width:1.0;"/><text fill="#000000" font-family="monospace" font-size="14" font-weight="bold" lengthAdjust="spacing" textLength="80" x="276" y="125.2219">model: str</text><ellipse cx="267" cy="140.3578" fill="none" rx="3" ry="3" style="stroke:#038048;stroke-width:1.0;"/><text fill="#000000" font-family="monospace" font-size="14" font-weight="bold" lengthAdjust="spacing" textLength="96" x="276" y="144.2898">motor: Motor</text><ellipse cx="267" cy="159.4257" fill="none" rx="3" ry="3" style="stroke:#038048;stroke-width:1.0;"/><text fill="#000000" font-family="monospace" font-size="14" font-weight="bold" lengthAdjust="spacing" textLength="128" x="276" y="163.3577">build_date: Date</text><rect fill="none" height="6" style="stroke:#C82930;stroke-width:1.0;" width="6" x="264" y="175.4936"/><text fill="#000000" font-family="monospace" font-size="14" font-weight="bold" lengthAdjust="spacing" textLength="176" x="276" y="182.4256">_passengers: list[str]</text><line style="stroke:#181818;stroke-width:0.5;" x1="257" x2="457" y1="190.5276" y2="190.5276"/></g><!--MD5=[0dc7f2ddb409b58bcf52b12238c25399]
class Ship--><g id="elem_Ship"><rect codeLine="19" fill="#F1F1F1" height="105.2038" id="Ship" rx="2.5" ry="2.5" style="stroke:#181818;stroke-width:0.5;" width="226" x="30" y="318.188"/><ellipse cx="122.75" cy="334.188" fill="#ADD1B2" rx="11" ry="11" style="stroke:#181818;stroke-width:1.0;"/><path d="M122.2188,341.1099 Q120.4688,341.1099 119.3281,340.3755 Q118.2031,339.6255 117.6406,338.2818 Q117.0938,336.9224 117.0938,335.1255 Q117.0938,333.0943 117.75,331.6411 Q118.4063,330.188 119.6875,329.4068 Q120.9688,328.6255 122.8438,328.6255 Q123.7344,328.6255 124.4063,328.813 Q125.0781,328.9849 125.7656,329.3286 L124.9531,331.3443 Q124.3281,331.0318 123.7813,330.9068 Q123.25,330.7818 122.7656,330.7818 Q121.5938,330.7818 120.8906,331.313 Q120.1875,331.8443 119.8906,332.7974 Q119.5938,333.7505 119.5938,335.0161 Q119.5938,337.0318 120.3125,338.0005 Q121.0313,338.9536 122.625,338.9536 Q123.2188,338.9536 123.8438,338.7974 Q124.4688,338.6411 125.2969,338.2661 L125.2969,340.4849 Q124.5625,340.7974 123.7656,340.9536 Q122.9844,341.1099 122.2188,341.1099 Z " fill="#000000"/><text fill="#000000" font-family="monospace" font-size="14" font-weight="bold" lengthAdjust="spacing" textLength="32" x="143.25" y="339.62">Ship</text><line style="stroke:#181818;stroke-width:0.5;" x1="31" x2="255" y1="350.188" y2="350.188"/><ellipse cx="41" cy="365.222" fill="none" rx="3" ry="3" style="stroke:#038048;stroke-width:1.0;"/><text fill="#000000" font-family="monospace" font-size="14" font-weight="bold" lengthAdjust="spacing" textLength="72" x="50" y="369.1539">name: str</text><ellipse cx="41" cy="384.2899" fill="none" rx="3" ry="3" style="stroke:#038048;stroke-width:1.0;"/><text fill="#000000" font-family="monospace" font-size="14" font-weight="bold" lengthAdjust="spacing" textLength="160" x="50" y="388.2219">fuel_capacity: float</text><rect fill="none" height="6" style="stroke:#C82930;stroke-width:1.0;" width="6" x="38" y="400.3578"/><text fill="#000000" font-family="monospace" font-size="14" font-weight="bold" lengthAdjust="spacing" textLength="200" x="50" y="407.2898">_motors: dict[str, Motor]</text><line style="stroke:#181818;stroke-width:0.5;" x1="31" x2="255" y1="415.3918" y2="415.3918"/></g><!--MD5=[84b16c5aecdf5ef572a1d6e116b0e845]
class AirPlane--><g id="elem_AirPlane"><rect codeLine="25" fill="#F1F1F1" height="86.1358" id="AirPlane" rx="2.5" ry="2.5" style="stroke:#181818;stroke-width:0.5;" width="178" x="291" y="327.688"/><ellipse cx="343.75" cy="343.688" fill="#ADD1B2" rx="11" ry="11" style="stroke:#181818;stroke-width:1.0;"/><path d="M343.2188,350.6099 Q341.4688,350.6099 340.3281,349.8755 Q339.2031,349.1255 338.6406,347.7818 Q338.0938,346.4224 338.0938,344.6255 Q338.0938,342.5943 338.75,341.1411 Q339.4063,339.688 340.6875,338.9068 Q341.9688,338.1255 343.8438,338.1255 Q344.7344,338.1255 345.4063,338.313 Q346.0781,338.4849 346.7656,338.8286 L345.9531,340.8443 Q345.3281,340.5318 344.7813,340.4068 Q344.25,340.2818 343.7656,340.2818 Q342.5938,340.2818 341.8906,340.813 Q341.1875,341.3443 340.8906,342.2974 Q340.5938,343.2505 340.5938,344.5161 Q340.5938,346.5318 341.3125,347.5005 Q342.0313,348.4536 343.625,348.4536 Q344.2188,348.4536 344.8438,348.2974 Q345.4688,348.1411 346.2969,347.7661 L346.2969,349.9849 Q345.5625,350.2974 344.7656,350.4536 Q343.9844,350.6099 343.2188,350.6099 Z " fill="#000000"/><text fill="#000000" font-family="monospace" font-size="14" font-weight="bold" lengthAdjust="spacing" textLength="64" x="364.25" y="349.12">AirPlane</text><line style="stroke:#181818;stroke-width:0.5;" x1="292" x2="468" y1="359.688" y2="359.688"/><ellipse cx="302" cy="374.722" fill="none" rx="3" ry="3" style="stroke:#038048;stroke-width:1.0;"/><text fill="#000000" font-family="monospace" font-size="14" font-weight="bold" lengthAdjust="spacing" textLength="32" x="311" y="378.6539">name</text><ellipse cx="302" cy="393.7899" fill="none" rx="3" ry="3" style="stroke:#038048;stroke-width:1.0;"/><text fill="#000000" font-family="monospace" font-size="14" font-weight="bold" lengthAdjust="spacing" textLength="152" x="311" y="397.7219">motors: list[Motor]</text><line style="stroke:#181818;stroke-width:0.5;" x1="292" x2="468" y1="405.8238" y2="405.8238"/></g><!--MD5=[05f1a7330b1ceb1ed664acf8e30033c9]
class Motor--><g id="elem_Motor"><rect codeLine="30" fill="#F1F1F1" height="143.3396" id="Motor" rx="2.5" ry="2.5" style="stroke:#181818;stroke-width:0.5;" width="186" x="35" y="55.188"/><ellipse cx="103.75" cy="71.188" fill="#ADD1B2" rx="11" ry="11" style="stroke:#181818;stroke-width:1.0;"/><path d="M103.2188,78.1099 Q101.4688,78.1099 100.3281,77.3755 Q99.2031,76.6255 98.6406,75.2818 Q98.0938,73.9224 98.0938,72.1255 Q98.0938,70.0943 98.75,68.6411 Q99.4063,67.188 100.6875,66.4068 Q101.9688,65.6255 103.8438,65.6255 Q104.7344,65.6255 105.4063,65.813 Q106.0781,65.9849 106.7656,66.3286 L105.9531,68.3443 Q105.3281,68.0318 104.7813,67.9068 Q104.25,67.7818 103.7656,67.7818 Q102.5938,67.7818 101.8906,68.313 Q101.1875,68.8443 100.8906,69.7974 Q100.5938,70.7505 100.5938,72.0161 Q100.5938,74.0318 101.3125,75.0005 Q102.0313,75.9536 103.625,75.9536 Q104.2188,75.9536 104.8438,75.7974 Q105.4688,75.6411 106.2969,75.2661 L106.2969,77.4849 Q105.5625,77.7974 104.7656,77.9536 Q103.9844,78.1099 103.2188,78.1099 Z " fill="#000000"/><text fill="#000000" font-family="monospace" font-size="14" font-weight="bold" lengthAdjust="spacing" textLength="40" x="124.25" y="76.62">Motor</text><line style="stroke:#181818;stroke-width:0.5;" x1="36" x2="220" y1="87.188" y2="87.188"/><ellipse cx="46" cy="102.222" fill="none" rx="3" ry="3" style="stroke:#038048;stroke-width:1.0;"/><text fill="#000000" font-family="monospace" font-size="14" font-weight="bold" lengthAdjust="spacing" textLength="104" x="55" y="106.1539">ps:     float</text><ellipse cx="46" cy="121.2899" fill="none" rx="3" ry="3" style="stroke:#038048;stroke-width:1.0;"/><text fill="#000000" font-family="monospace" font-size="14" font-weight="bold" lengthAdjust="spacing" textLength="88" x="55" y="125.2219">ccm:    int</text><ellipse cx="46" cy="140.3578" fill="none" rx="3" ry="3" style="stroke:#038048;stroke-width:1.0;"/><text fill="#000000" font-family="monospace" font-size="14" font-weight="bold" lengthAdjust="spacing" textLength="88" x="55" y="144.2898">fuel:   str</text><ellipse cx="46" cy="159.4257" fill="none" rx="3" ry="3" style="stroke:#038048;stroke-width:1.0;"/><text fill="#000000" font-family="monospace" font-size="14" font-weight="bold" lengthAdjust="spacing" textLength="88" x="55" y="163.3577">brand:  str</text><rect fill="none" height="6" style="stroke:#C82930;stroke-width:1.0;" width="6" x="43" y="175.4936"/><text fill="#000000" font-family="monospace" font-size="14" font-weight="bold" lengthAdjust="spacing" textLength="160" x="55" y="182.4256">_price: float | None</text><line style="stroke:#181818;stroke-width:0.5;" x1="36" x2="220" y1="190.5276" y2="190.5276"/></g><!--MD5=[bc130c653562f11ca4ee6d99b6dfd0d9]
class TCar--><g id="elem_TCar"><rect codeLine="44" fill="#F1F1F1" height="181.4754" id="TCar" rx="2.5" ry="2.5" style="stroke:#181818;stroke-width:0.5;" width="180" x="812" y="280.188"/><ellipse cx="885.75" cy="296.188" fill="#B4A7E5" rx="11" ry="11" style="stroke:#181818;stroke-width:1.0;"/><path d="M881.7813,302.688 L881.7813,300.9849 L884.1406,300.7193 L884.1406,292.5161 L881.7813,292.2505 L881.7813,290.5474 L888.9219,290.5474 L888.9219,292.2505 L886.5,292.5161 L886.5,300.7193 L888.9219,300.9849 L888.9219,302.688 L881.7813,302.688 Z " fill="#000000"/><text fill="#000000" font-family="monospace" font-size="14" font-style="italic" font-weight="bold" lengthAdjust="spacing" textLength="24" x="906.25" y="301.62">Car</text><line style="stroke:#181818;stroke-width:0.5;" x1="813" x2="991" y1="312.188" y2="312.188"/><text fill="#000000" font-family="monospace" font-size="14" font-weight="bold" lengthAdjust="spacing" textLength="72" x="818" y="331.1539">_id_ TEXT</text><text fill="#000000" font-family="monospace" font-size="14" font-weight="bold" lengthAdjust="spacing" textLength="120" x="818" y="350.2219">_children_ TEXT</text><text fill="#000000" font-family="monospace" font-size="14" font-weight="bold" lengthAdjust="spacing" textLength="168" x="818" y="369.2898">^'{"motor": "Motor"}'</text><line style="stroke:#181818;stroke-width:1.0;stroke-dasharray:1.0,2.0;" x1="813" x2="991" y1="377.3918" y2="377.3918"/><text fill="#000000" font-family="monospace" font-size="14" font-weight="bold" lengthAdjust="spacing" textLength="80" x="818" y="396.3577">brand TEXT</text><text fill="#000000" font-family="monospace" font-size="14" font-weight="bold" lengthAdjust="spacing" textLength="80" x="818" y="415.4256">model TEXT</text><text fill="#000000" font-family="monospace" font-size="14" font-weight="bold" lengthAdjust="spacing" textLength="144" x="818" y="434.4935">build_date NUMERIC</text><text fill="#000000" font-family="monospace" font-size="14" font-weight="bold" lengthAdjust="spacing" textLength="128" x="818" y="453.5614">_passengers TEXT</text></g><!--MD5=[84c3ffa8a681cf12ee50437f2a1e237d]
class TShip--><g id="elem_TShip"><rect codeLine="55" fill="#F1F1F1" height="143.3396" id="TShip" rx="2.5" ry="2.5" style="stroke:#181818;stroke-width:0.5;" width="204" x="573" y="531.188"/><ellipse cx="654.75" cy="547.188" fill="#B4A7E5" rx="11" ry="11" style="stroke:#181818;stroke-width:1.0;"/><path d="M650.7813,553.688 L650.7813,551.9849 L653.1406,551.7193 L653.1406,543.5161 L650.7813,543.2505 L650.7813,541.5474 L657.9219,541.5474 L657.9219,543.2505 L655.5,543.5161 L655.5,551.7193 L657.9219,551.9849 L657.9219,553.688 L650.7813,553.688 Z " fill="#000000"/><text fill="#000000" font-family="monospace" font-size="14" font-style="italic" font-weight="bold" lengthAdjust="spacing" textLength="32" x="675.25" y="552.62">Ship</text><line style="stroke:#181818;stroke-width:0.5;" x1="574" x2="776" y1="563.188" y2="563.188"/><text fill="#000000" font-family="monospace" font-size="14" font-weight="bold" lengthAdjust="spacing" textLength="72" x="579" y="582.1539">_id_ TEXT</text><text fill="#000000" font-family="monospace" font-size="14" font-weight="bold" lengthAdjust="spacing" textLength="120" x="579" y="601.2219">_children_ TEXT</text><text fill="#000000" font-family="monospace" font-size="14" font-weight="bold" lengthAdjust="spacing" textLength="192" x="579" y="620.2898">^'{"_motors": "dMotor"}'</text><line style="stroke:#181818;stroke-width:1.0;stroke-dasharray:1.0,2.0;" x1="574" x2="776" y1="628.3918" y2="628.3918"/><text fill="#000000" font-family="monospace" font-size="14" font-weight="bold" lengthAdjust="spacing" textLength="72" x="579" y="647.3577">name TEXT</text><text fill="#000000" font-family="monospace" font-size="14" font-weight="bold" lengthAdjust="spacing" textLength="144" x="579" y="666.4256">fuel_capacity REAL</text></g><!--MD5=[dfd56aeae7ce662af3f221f6c97670c7]
class TAirPlane--><g id="elem_TAirPlane"><rect codeLine="64" fill="#F1F1F1" height="124.2717" id="TAirPlane" rx="2.5" ry="2.5" style="stroke:#181818;stroke-width:0.5;" width="196" x="812" y="540.688"/><ellipse cx="873.75" cy="556.688" fill="#B4A7E5" rx="11" ry="11" style="stroke:#181818;stroke-width:1.0;"/><path d="M869.7813,563.188 L869.7813,561.4849 L872.1406,561.2193 L872.1406,553.0161 L869.7813,552.7505 L869.7813,551.0474 L876.9219,551.0474 L876.9219,552.7505 L874.5,553.0161 L874.5,561.2193 L876.9219,561.4849 L876.9219,563.188 L869.7813,563.188 Z " fill="#000000"/><text fill="#000000" font-family="monospace" font-size="14" font-style="italic" font-weight="bold" lengthAdjust="spacing" textLength="64" x="894.25" y="562.12">AirPlane</text><line style="stroke:#181818;stroke-width:0.5;" x1="813" x2="1007" y1="572.688" y2="572.688"/><text fill="#000000" font-family="monospace" font-size="14" font-weight="bold" lengthAdjust="spacing" textLength="72" x="818" y="591.6539">_id_ TEXT</text><text fill="#000000" font-family="monospace" font-size="14" font-weight="bold" lengthAdjust="spacing" textLength="120" x="818" y="610.7219">_children_ TEXT</text><text fill="#000000" font-family="monospace" font-size="14" font-weight="bold" lengthAdjust="spacing" textLength="184" x="818" y="629.7898">^'{"motors": "lMotor"}'</text><line style="stroke:#181818;stroke-width:1.0;stroke-dasharray:1.0,2.0;" x1="813" x2="1007" y1="637.8918" y2="637.8918"/><text fill="#000000" font-family="monospace" font-size="14" font-weight="bold" lengthAdjust="spacing" textLength="72" x="818" y="656.8577">name TEXT</text></g><!--MD5=[d7a207ccb41e446460556933800b2995]
class TMotor--><g id="elem_TMotor"><rect codeLine="72" fill="#F1F1F1" height="200.5433" id="TMotor" rx="2.5" ry="2.5" style="stroke:#181818;stroke-width:0.5;" width="172" x="605" y="270.188"/><ellipse cx="666.75" cy="286.188" fill="#B4A7E5" rx="11" ry="11" style="stroke:#181818;stroke-width:1.0;"/><path d="M662.7813,292.688 L662.7813,290.9849 L665.1406,290.7193 L665.1406,282.5161 L662.7813,282.2505 L662.7813,280.5474 L669.9219,280.5474 L669.9219,282.2505 L667.5,282.5161 L667.5,290.7193 L669.9219,290.9849 L669.9219,292.688 L662.7813,292.688 Z " fill="#000000"/><text fill="#000000" font-family="monospace" font-size="14" font-style="italic" font-weight="bold" lengthAdjust="spacing" textLength="40" x="687.25" y="291.62">Motor</text><line style="stroke:#181818;stroke-width:0.5;" x1="606" x2="776" y1="302.188" y2="302.188"/><text fill="#000000" font-family="monospace" font-size="14" font-weight="bold" lengthAdjust="spacing" textLength="104" x="611" y="321.1539">_id_     TEXT</text><text fill="#000000" font-family="monospace" font-size="14" font-weight="bold" lengthAdjust="spacing" textLength="160" x="611" y="340.2219">_parent_ TEXT | NULL</text><text fill="#000000" font-family="monospace" font-size="14" font-weight="bold" lengthAdjust="spacing" textLength="160" x="611" y="359.2898">_key_    TEXT | NULL</text><line style="stroke:#181818;stroke-width:1.0;stroke-dasharray:1.0,2.0;" x1="606" x2="776" y1="367.3918" y2="367.3918"/><text fill="#000000" font-family="monospace" font-size="14" font-weight="bold" lengthAdjust="spacing" textLength="104" x="611" y="386.3577">ps       REAL</text><text fill="#000000" font-family="monospace" font-size="14" font-weight="bold" lengthAdjust="spacing" textLength="128" x="611" y="405.4256">ccm      INTEGER</text><text fill="#000000" font-family="monospace" font-size="14" font-weight="bold" lengthAdjust="spacing" textLength="104" x="611" y="424.4935">fuel     TEXT</text><text fill="#000000" font-family="monospace" font-size="14" font-weight="bold" lengthAdjust="spacing" textLength="104" x="611" y="443.5614">brand    TEXT</text><text fill="#000000" font-family="monospace" font-size="14" font-weight="bold" lengthAdjust="spacing" textLength="160" x="611" y="462.6294">_price   REAL | NULL</text></g><!--MD5=[6d63b12513d01e7a68885b7eaf7c96e2]
link Motor to Car--><g id="link_Motor_Car"><path codeLine="38" d="M221.03,126.688 C225.92,126.688 230.82,126.688 235.71,126.688 " fill="none" id="Motor-to-Car" style="stroke:#181818;stroke-width:1.0;"/><polygon fill="none" points="235.82,119.688,255.82,126.688,235.82,133.688,235.82,119.688" style="stroke:#181818;stroke-width:1.0;"/></g><!--MD5=[8f5fd588e4766afffcb7811d669085c0]
link Motor to Ship--><g id="link_Motor_Ship"><path codeLine="39" d="M132.38,198.338 C134.31,229.538 136.58,266.188 138.53,297.568 " fill="none" id="Motor-to-Ship" style="stroke:#181818;stroke-width:1.0;"/><polygon fill="none" points="145.53,297.418,139.78,317.808,131.56,298.288,145.53,297.418" style="stroke:#181818;stroke-width:1.0;"/></g><!--MD5=[348fed3f8b4d706c876afd4e6cc29a04]
link Motor to AirPlane--><g id="link_Motor_AirPlane"><path codeLine="40" d="M221.03,190.308 C226.67,193.168 232.35,195.818 238,198.188 C252.71,204.358 259.9,197.068 273,206.188 C309.58,231.648 336.8,274.038 354.63,309.278 " fill="none" id="Motor-to-AirPlane" style="stroke:#181818;stroke-width:1.0;"/><polygon fill="none" points="361,306.388,363.33,327.448,348.38,312.438,361,306.388" style="stroke:#181818;stroke-width:1.0;"/></g><!--MD5=[669bcbe882229a42db191f8e07b55f72]
link TMotor to TCar--><g id="link_TMotor_TCar"><path codeLine="84" d="M777.13,370.688 C786.96,370.688 796.79,370.688 806.62,370.688 " fill="none" id="TMotor-to-TCar" style="stroke:#181818;stroke-width:1.0;"/><rect fill="#FFFFFF" fill-opacity="0.50196" height="10" style="stroke:#181818;stroke-width:1.5;" width="10" x="806.76" y="365.688"/></g><!--MD5=[c8c2e50a2e4a3b3e29a8c1149ae9503e]
link TMotor to TShip--><g id="link_TMotor_TShip"><path codeLine="85" d="M684.08,471.228 C682.8,489.498 681.5,508.288 680.28,525.728 " fill="none" id="TMotor-to-TShip" style="stroke:#181818;stroke-width:1.0;"/><rect fill="#FFFFFF" fill-opacity="0.50196" height="10" style="stroke:#181818;stroke-width:1.5;" width="10" x="674.91" y="526.088"/></g><!--MD5=[92cec2370b41ae5d80e1f7e7590665dc]
link TMotor to TAirPlane--><g id="link_TMotor_TAirPlane"><path codeLine="86" d="M777.24,462.258 C800.99,487.198 826.26,513.748 848.32,536.908 " fill="none" id="TMotor-to-TAirPlane" style="stroke:#181818;stroke-width:1.0;"/><rect fill="#FFFFFF" fill-opacity="0.50196" height="10" style="stroke:#181818;stroke-width:1.5;" width="10" x="846.83" y="535.598"/></g><!--MD5=[09646c7e0eb17637f2ebc0432d79abbc]
link Python to SQL--><g id="link_Python_SQL"><path d="M501.0369,162.4279 C501.3498,163.7802 501.6696,165.1624 501.9959,166.5729 C507.2175,189.1396 514.1088,218.9199 521,248.6993 C527.8913,278.4786 534.7825,308.2571 540.0041,330.82 C540.3304,332.2302 540.6502,333.6122 540.9631,334.9643 " fill="none" id="Python-to-SQL" style="stroke:#181818;stroke-width:3.0;"/><polygon fill="#181818" points="540.9631,334.9643,542.831,325.2942,539.8358,330.093,535.037,327.0979,540.9631,334.9643" style="stroke:#181818;stroke-width:3.0;"/></g><!--MD5=[ed262dfbc707cbb2a1f598df4f121d0b]
@startuml conversion_example

skinparam {
    DefaultFontName monospaced
    BackgroundColor #ffffff80
    ClassStereotypeFontStyle bold
    ClassFontStyle bold
    TitleFontSize 16
}

package "Python Classes" as Python #cfc {
    class Car {
        + brand: str
        + model: str
        + motor: Motor
        + build_date: Date
        - _passengers: list[str]
    }

    class Ship {
        + name: str
        + fuel_capacity: float
        - _motors: dict[str, Motor]
    }

    class AirPlane {
        + name
        + motors: list[Motor]
    }

    class Motor {
        + ps:     float
        + ccm:    int
        + fuel:   str
        + brand:  str
        - _price: float | None
    }

    Motor -right-|> Car
    Motor - -|> Ship
    Motor - -|> AirPlane
}

package "SQL Tables" as SQL #ffc {
    interface "Car" as TCar {
        _id_ TEXT
        _children_ TEXT
            ^'{"motor": "Motor"}'
        ..
        brand TEXT
        model TEXT
        build_date NUMERIC
        _passengers TEXT
    }

    interface "Ship" as TShip {
        _id_ TEXT
        _children_ TEXT
            ^'{"_motors": "dMotor"}'
        ..
        name TEXT
        fuel_capacity REAL
    }

    interface "AirPlane" as TAirPlane {
        _id_ TEXT
        _children_ TEXT
            ^'{"motors": "lMotor"}'
        ..
        name TEXT
    }

    interface "Motor" as TMotor {
        _id_     TEXT
        _parent_ TEXT | NULL
        _key_    TEXT | NULL
        ..
        ps       REAL
        ccm      INTEGER
        fuel     TEXT
        brand    TEXT
        _price   REAL | NULL
    }

    TMotor -right-# TCar
    TMotor - -# TShip
    TMotor - -# TAirPlane
}

Python -[thickness=3]up-> SQL

@enduml

PlantUML version 1.2022.7(Mon Aug 22 19:01:30 CEST 2022)
(GPL source distribution)
Java Runtime: OpenJDK Runtime Environment
JVM: OpenJDK 64-Bit Server VM
Default Encoding: UTF-8
Language: en
Country: US
--></g></svg>
