<?xml version="1.0" encoding="UTF-8" standalone="no"?><svg xmlns="http://www.w3.org/2000/svg" xmlns:xlink="http://www.w3.org/1999/xlink" contentStyleType="text/css" height="762px" preserveAspectRatio="none" style="width:1146px;height:762px;background:#FFFFFF80;" version="1.1" viewBox="0 0 1146 762" width="1146px" zoomAndPan="magnify"><defs/><g><!--MD5=[d4854912b7e46cb60cbc8593abcbe5fc]
cluster Python--><g id="cluster_Python"><path d="M8.5,7.188 L149.5,7.188 A3.75,3.75 0 0 1 152,9.688 L159,34.9801 L554.5,34.9801 A2.5,2.5 0 0 1 557,37.4801 L557,454.188 A2.5,2.5 0 0 1 554.5,456.688 L8.5,456.688 A2.5,2.5 0 0 1 6,454.188 L6,9.688 A2.5,2.5 0 0 1 8.5,7.188 " fill="#CCFFCC" style="stroke:#000000;stroke-width:1.5;"/><line style="stroke:#000000;stroke-width:1.5;" x1="6" x2="159" y1="34.9801" y2="34.9801"/><text fill="#000000" font-family="monospace" font-size="16" font-weight="bold" lengthAdjust="spacing" textLength="140" x="10" y="26.292">Python Classes</text></g><!--MD5=[c89d3edae81d52614039fdfcb9a3c8ef]
cluster SQL--><g id="cluster_SQL"><path d="M599.5,222.188 L700.5,222.188 A3.75,3.75 0 0 1 703,224.688 L710,249.9801 L1136.5,249.9801 A2.5,2.5 0 0 1 1139,252.4801 L1139,752.688 A2.5,2.5 0 0 1 1136.5,755.188 L599.5,755.188 A2.5,2.5 0 0 1 597,752.688 L597,224.688 A2.5,2.5 0 0 1 599.5,222.188 " fill="#FFFFCC" style="stroke:#000000;stroke-width:1.5;"/><line style="stroke:#000000;stroke-width:1.5;" x1="597" x2="710" y1="249.9801" y2="249.9801"/><text fill="#000000" font-family="monospace" font-size="16" font-weight="bold" lengthAdjust="spacing" textLength="100" x="601" y="241.292">SQL Tables</text></g><!--MD5=[3f0ef310aaa84a542276992c5216544d]
class Car--><g id="elem_Car"><rect codeLine="11" fill="#F1F1F1" height="143.3396" id="Car" rx="2.5" ry="2.5" style="stroke:#181818;stroke-width:0.5;" width="202" x="291" y="55.188"/><ellipse cx="375.75" cy="71.188" fill="#ADD1B2" rx="11" ry="11" style="stroke:#181818;stroke-width:1.0;"/><path d="M375.2188,78.1099 Q373.4688,78.1099 372.3281,77.3755 Q371.2031,76.6255 370.6406,75.2818 Q370.0938,73.9224 370.0938,72.1255 Q370.0938,70.0943 370.75,68.6411 Q371.4063,67.188 372.6875,66.4068 Q373.9688,65.6255 375.8438,65.6255 Q376.7344,65.6255 377.4063,65.813 Q378.0781,65.9849 378.7656,66.3286 L377.9531,68.3443 Q377.3281,68.0318 376.7813,67.9068 Q376.25,67.7818 375.7656,67.7818 Q374.5938,67.7818 373.8906,68.313 Q373.1875,68.8443 372.8906,69.7974 Q372.5938,70.7505 372.5938,72.0161 Q372.5938,74.0318 373.3125,75.0005 Q374.0313,75.9536 375.625,75.9536 Q376.2188,75.9536 376.8438,75.7974 Q377.4688,75.6411 378.2969,75.2661 L378.2969,77.4849 Q377.5625,77.7974 376.7656,77.9536 Q375.9844,78.1099 375.2188,78.1099 Z " fill="#000000"/><text fill="#000000" font-family="monospace" font-size="14" font-weight="bold" lengthAdjust="spacing" textLength="24" x="396.25" y="76.62">Car</text><line style="stroke:#181818;stroke-width:0.5;" x1="292" x2="492" y1="87.188" y2="87.188"/><ellipse cx="302" cy="102.222" fill="none" rx="3" ry="3" style="stroke:#038048;stroke-width:1.0;"/><text fill="#000000" font-family="monospace" font-size="14" font-weight="bold" lengthAdjust="spacing" textLength="80" x="311" y="106.1539">brand: str</text><ellipse cx="302" cy="121.2899" fill="none" rx="3" ry="3" style="stroke:#038048;stroke-width:1.0;"/><text fill="#000000" font-family="monospace" font-size="14" font-weight="bold" lengthAdjust="spacing" textLength="80" x="311" y="125.2219">model: str</text><ellipse cx="302" cy="140.3578" fill="none" rx="3" ry="3" style="stroke:#038048;stroke-width:1.0;"/><text fill="#000000" font-family="monospace" font-size="14" font-weight="bold" lengthAdjust="spacing" textLength="96" x="311" y="144.2898">motor: Motor</text><ellipse cx="302" cy="159.4257" fill="none" rx="3" ry="3" style="stroke:#038048;stroke-width:1.0;"/><text fill="#000000" font-family="monospace" font-size="14" font-weight="bold" lengthAdjust="spacing" textLength="128" x="311" y="163.3577">build_date: Date</text><rect fill="none" height="6" style="stroke:#C82930;stroke-width:1.0;" width="6" x="299" y="175.4936"/><text fill="#000000" font-family="monospace" font-size="14" font-weight="bold" lengthAdjust="spacing" textLength="176" x="311" y="182.4256">_passengers: list[str]</text><line style="stroke:#181818;stroke-width:0.5;" x1="292" x2="492" y1="190.5276" y2="190.5276"/></g><!--MD5=[0dc7f2ddb409b58bcf52b12238c25399]
class Ship--><g id="elem_Ship"><rect codeLine="19" fill="#F1F1F1" height="105.2038" id="Ship" rx="2.5" ry="2.5" style="stroke:#181818;stroke-width:0.5;" width="226" x="30" y="327.688"/><ellipse cx="122.75" cy="343.688" fill="#ADD1B2" rx="11" ry="11" style="stroke:#181818;stroke-width:1.0;"/><path d="M122.2188,350.6099 Q120.4688,350.6099 119.3281,349.8755 Q118.2031,349.1255 117.6406,347.7818 Q117.0938,346.4224 117.0938,344.6255 Q117.0938,342.5943 117.75,341.1411 Q118.4063,339.688 119.6875,338.9068 Q120.9688,338.1255 122.8438,338.1255 Q123.7344,338.1255 124.4063,338.313 Q125.0781,338.4849 125.7656,338.8286 L124.9531,340.8443 Q124.3281,340.5318 123.7813,340.4068 Q123.25,340.2818 122.7656,340.2818 Q121.5938,340.2818 120.8906,340.813 Q120.1875,341.3443 119.8906,342.2974 Q119.5938,343.2505 119.5938,344.5161 Q119.5938,346.5318 120.3125,347.5005 Q121.0313,348.4536 122.625,348.4536 Q123.2188,348.4536 123.8438,348.2974 Q124.4688,348.1411 125.2969,347.7661 L125.2969,349.9849 Q124.5625,350.2974 123.7656,350.4536 Q122.9844,350.6099 122.2188,350.6099 Z " fill="#000000"/><text fill="#000000" font-family="monospace" font-size="14" font-weight="bold" lengthAdjust="spacing" textLength="32" x="143.25" y="349.12">Ship</text><line style="stroke:#181818;stroke-width:0.5;" x1="31" x2="255" y1="359.688" y2="359.688"/><ellipse cx="41" cy="374.722" fill="none" rx="3" ry="3" style="stroke:#038048;stroke-width:1.0;"/><text fill="#000000" font-family="monospace" font-size="14" font-weight="bold" lengthAdjust="spacing" textLength="72" x="50" y="378.6539">name: str</text><ellipse cx="41" cy="393.7899" fill="none" rx="3" ry="3" style="stroke:#038048;stroke-width:1.0;"/><text fill="#000000" font-family="monospace" font-size="14" font-weight="bold" lengthAdjust="spacing" textLength="160" x="50" y="397.7219">fuel_capacity: float</text><rect fill="none" height="6" style="stroke:#C82930;stroke-width:1.0;" width="6" x="38" y="409.8578"/><text fill="#000000" font-family="monospace" font-size="14" font-weight="bold" lengthAdjust="spacing" textLength="200" x="50" y="416.7898">_motors: dict[str, Motor]</text><line style="stroke:#181818;stroke-width:0.5;" x1="31" x2="255" y1="424.8918" y2="424.8918"/></g><!--MD5=[84b16c5aecdf5ef572a1d6e116b0e845]
class AirPlane--><g id="elem_AirPlane"><rect codeLine="25" fill="#F1F1F1" height="86.1358" id="AirPlane" rx="2.5" ry="2.5" style="stroke:#181818;stroke-width:0.5;" width="234" x="291" y="337.188"/><ellipse cx="371.75" cy="353.188" fill="#ADD1B2" rx="11" ry="11" style="stroke:#181818;stroke-width:1.0;"/><path d="M371.2188,360.1099 Q369.4688,360.1099 368.3281,359.3755 Q367.2031,358.6255 366.6406,357.2818 Q366.0938,355.9224 366.0938,354.1255 Q366.0938,352.0943 366.75,350.6411 Q367.4063,349.188 368.6875,348.4068 Q369.9688,347.6255 371.8438,347.6255 Q372.7344,347.6255 373.4063,347.813 Q374.0781,347.9849 374.7656,348.3286 L373.9531,350.3443 Q373.3281,350.0318 372.7813,349.9068 Q372.25,349.7818 371.7656,349.7818 Q370.5938,349.7818 369.8906,350.313 Q369.1875,350.8443 368.8906,351.7974 Q368.5938,352.7505 368.5938,354.0161 Q368.5938,356.0318 369.3125,357.0005 Q370.0313,357.9536 371.625,357.9536 Q372.2188,357.9536 372.8438,357.7974 Q373.4688,357.6411 374.2969,357.2661 L374.2969,359.4849 Q373.5625,359.7974 372.7656,359.9536 Q371.9844,360.1099 371.2188,360.1099 Z " fill="#000000"/><text fill="#000000" font-family="monospace" font-size="14" font-weight="bold" lengthAdjust="spacing" textLength="64" x="392.25" y="358.62">AirPlane</text><line style="stroke:#181818;stroke-width:0.5;" x1="292" x2="524" y1="369.188" y2="369.188"/><ellipse cx="302" cy="384.222" fill="none" rx="3" ry="3" style="stroke:#038048;stroke-width:1.0;"/><text fill="#000000" font-family="monospace" font-size="14" font-weight="bold" lengthAdjust="spacing" textLength="32" x="311" y="388.1539">name</text><ellipse cx="302" cy="403.2899" fill="none" rx="3" ry="3" style="stroke:#038048;stroke-width:1.0;"/><text fill="#000000" font-family="monospace" font-size="14" font-weight="bold" lengthAdjust="spacing" textLength="208" x="311" y="407.2219">motors: list[Motor] | None</text><line style="stroke:#181818;stroke-width:0.5;" x1="292" x2="524" y1="415.3238" y2="415.3238"/></g><!--MD5=[05f1a7330b1ceb1ed664acf8e30033c9]
class Motor--><g id="elem_Motor"><rect codeLine="30" fill="#F1F1F1" height="143.3396" id="Motor" rx="2.5" ry="2.5" style="stroke:#181818;stroke-width:0.5;" width="186" x="70" y="55.188"/><ellipse cx="138.75" cy="71.188" fill="#ADD1B2" rx="11" ry="11" style="stroke:#181818;stroke-width:1.0;"/><path d="M138.2188,78.1099 Q136.4688,78.1099 135.3281,77.3755 Q134.2031,76.6255 133.6406,75.2818 Q133.0938,73.9224 133.0938,72.1255 Q133.0938,70.0943 133.75,68.6411 Q134.4063,67.188 135.6875,66.4068 Q136.9688,65.6255 138.8438,65.6255 Q139.7344,65.6255 140.4063,65.813 Q141.0781,65.9849 141.7656,66.3286 L140.9531,68.3443 Q140.3281,68.0318 139.7813,67.9068 Q139.25,67.7818 138.7656,67.7818 Q137.5938,67.7818 136.8906,68.313 Q136.1875,68.8443 135.8906,69.7974 Q135.5938,70.7505 135.5938,72.0161 Q135.5938,74.0318 136.3125,75.0005 Q137.0313,75.9536 138.625,75.9536 Q139.2188,75.9536 139.8438,75.7974 Q140.4688,75.6411 141.2969,75.2661 L141.2969,77.4849 Q140.5625,77.7974 139.7656,77.9536 Q138.9844,78.1099 138.2188,78.1099 Z " fill="#000000"/><text fill="#000000" font-family="monospace" font-size="14" font-weight="bold" lengthAdjust="spacing" textLength="40" x="159.25" y="76.62">Motor</text><line style="stroke:#181818;stroke-width:0.5;" x1="71" x2="255" y1="87.188" y2="87.188"/><ellipse cx="81" cy="102.222" fill="none" rx="3" ry="3" style="stroke:#038048;stroke-width:1.0;"/><text fill="#000000" font-family="monospace" font-size="14" font-weight="bold" lengthAdjust="spacing" textLength="104" x="90" y="106.1539">ps:     float</text><ellipse cx="81" cy="121.2899" fill="none" rx="3" ry="3" style="stroke:#038048;stroke-width:1.0;"/><text fill="#000000" font-family="monospace" font-size="14" font-weight="bold" lengthAdjust="spacing" textLength="88" x="90" y="125.2219">ccm:    int</text><ellipse cx="81" cy="140.3578" fill="none" rx="3" ry="3" style="stroke:#038048;stroke-width:1.0;"/><text fill="#000000" font-family="monospace" font-size="14" font-weight="bold" lengthAdjust="spacing" textLength="88" x="90" y="144.2898">fuel:   str</text><ellipse cx="81" cy="159.4257" fill="none" rx="3" ry="3" style="stroke:#038048;stroke-width:1.0;"/><text fill="#000000" font-family="monospace" font-size="14" font-weight="bold" lengthAdjust="spacing" textLength="88" x="90" y="163.3577">brand:  str</text><rect fill="none" height="6" style="stroke:#C82930;stroke-width:1.0;" width="6" x="78" y="175.4936"/><text fill="#000000" font-family="monospace" font-size="14" font-weight="bold" lengthAdjust="spacing" textLength="160" x="90" y="182.4256">_price: float | None</text><line style="stroke:#181818;stroke-width:0.5;" x1="71" x2="255" y1="190.5276" y2="190.5276"/></g><!--MD5=[bc130c653562f11ca4ee6d99b6dfd0d9]
class TCar--><g id="elem_TCar"><rect codeLine="44" fill="#F1F1F1" height="219.6113" id="TCar" rx="2.5" ry="2.5" style="stroke:#181818;stroke-width:0.5;" width="220" x="895" y="270.188"/><ellipse cx="988.75" cy="286.188" fill="#B4A7E5" rx="11" ry="11" style="stroke:#181818;stroke-width:1.0;"/><path d="M984.7813,292.688 L984.7813,290.9849 L987.1406,290.7193 L987.1406,282.5161 L984.7813,282.2505 L984.7813,280.5474 L991.9219,280.5474 L991.9219,282.2505 L989.5,282.5161 L989.5,290.7193 L991.9219,290.9849 L991.9219,292.688 L984.7813,292.688 Z " fill="#000000"/><text fill="#000000" font-family="monospace" font-size="14" font-style="italic" font-weight="bold" lengthAdjust="spacing" textLength="24" x="1009.25" y="291.62">Car</text><line style="stroke:#181818;stroke-width:0.5;" x1="896" x2="1114" y1="302.188" y2="302.188"/><text fill="#000000" font-family="monospace" font-size="14" font-weight="bold" lengthAdjust="spacing" textLength="72" x="901" y="321.1539">_id_ TEXT</text><text fill="#000000" font-family="monospace" font-size="14" font-weight="bold" lengthAdjust="spacing" textLength="160" x="901" y="340.2219">_parent_ TEXT | NULL</text><text fill="#000000" font-family="monospace" font-size="14" font-weight="bold" lengthAdjust="spacing" textLength="208" x="901" y="359.2898">_parent_table_ TEXT | NULL</text><text fill="#000000" font-family="monospace" font-size="14" font-weight="bold" lengthAdjust="spacing" textLength="168" x="901" y="378.3577">_expires_ REAL | NULL</text><line style="stroke:#181818;stroke-width:1.0;stroke-dasharray:1.0,2.0;" x1="896" x2="1114" y1="386.4597" y2="386.4597"/><text fill="#000000" font-family="monospace" font-size="14" font-weight="bold" lengthAdjust="spacing" textLength="80" x="901" y="405.4256">brand TEXT</text><text fill="#000000" font-family="monospace" font-size="14" font-weight="bold" lengthAdjust="spacing" textLength="80" x="901" y="424.4935">model TEXT</text><text fill="#000000" font-family="monospace" font-size="14" font-weight="bold" lengthAdjust="spacing" textLength="144" x="901" y="443.5614">build_date NUMERIC</text><text fill="#000000" font-family="monospace" font-size="14" font-weight="bold" lengthAdjust="spacing" textLength="128" x="901" y="462.6294">_passengers BLOB</text><text fill="#000000" font-family="monospace" font-size="14" font-weight="bold" lengthAdjust="spacing" textLength="80" x="901" y="481.6973">motor TEXT</text></g><!--MD5=[84c3ffa8a681cf12ee50437f2a1e237d]
class TShip--><g id="elem_TShip"><rect codeLine="57" fill="#F1F1F1" height="181.4754" id="TShip" rx="2.5" ry="2.5" style="stroke:#181818;stroke-width:0.5;" width="220" x="640" y="550.188"/><ellipse cx="729.75" cy="566.188" fill="#B4A7E5" rx="11" ry="11" style="stroke:#181818;stroke-width:1.0;"/><path d="M725.7813,572.688 L725.7813,570.9849 L728.1406,570.7193 L728.1406,562.5161 L725.7813,562.2505 L725.7813,560.5474 L732.9219,560.5474 L732.9219,562.2505 L730.5,562.5161 L730.5,570.7193 L732.9219,570.9849 L732.9219,572.688 L725.7813,572.688 Z " fill="#000000"/><text fill="#000000" font-family="monospace" font-size="14" font-style="italic" font-weight="bold" lengthAdjust="spacing" textLength="32" x="750.25" y="571.62">Ship</text><line style="stroke:#181818;stroke-width:0.5;" x1="641" x2="859" y1="582.188" y2="582.188"/><text fill="#000000" font-family="monospace" font-size="14" font-weight="bold" lengthAdjust="spacing" textLength="72" x="646" y="601.1539">_id_ TEXT</text><text fill="#000000" font-family="monospace" font-size="14" font-weight="bold" lengthAdjust="spacing" textLength="160" x="646" y="620.2219">_parent_ TEXT | NULL</text><text fill="#000000" font-family="monospace" font-size="14" font-weight="bold" lengthAdjust="spacing" textLength="208" x="646" y="639.2898">_parent_table_ TEXT | NULL</text><text fill="#000000" font-family="monospace" font-size="14" font-weight="bold" lengthAdjust="spacing" textLength="168" x="646" y="658.3577">_expires_ REAL | NULL</text><line style="stroke:#181818;stroke-width:1.0;stroke-dasharray:1.0,2.0;" x1="641" x2="859" y1="666.4597" y2="666.4597"/><text fill="#000000" font-family="monospace" font-size="14" font-weight="bold" lengthAdjust="spacing" textLength="72" x="646" y="685.4256">name TEXT</text><text fill="#000000" font-family="monospace" font-size="14" font-weight="bold" lengthAdjust="spacing" textLength="144" x="646" y="704.4935">fuel_capacity REAL</text><text fill="#000000" font-family="monospace" font-size="14" font-weight="bold" lengthAdjust="spacing" textLength="96" x="646" y="723.5614">_motors BLOB</text></g><!--MD5=[dfd56aeae7ce662af3f221f6c97670c7]
class TAirPlane--><g id="elem_TAirPlane"><rect codeLine="68" fill="#F1F1F1" height="162.4075" id="TAirPlane" rx="2.5" ry="2.5" style="stroke:#181818;stroke-width:0.5;" width="220" x="895" y="559.688"/><ellipse cx="968.75" cy="575.688" fill="#B4A7E5" rx="11" ry="11" style="stroke:#181818;stroke-width:1.0;"/><path d="M964.7813,582.188 L964.7813,580.4849 L967.1406,580.2193 L967.1406,572.0161 L964.7813,571.7505 L964.7813,570.0474 L971.9219,570.0474 L971.9219,571.7505 L969.5,572.0161 L969.5,580.2193 L971.9219,580.4849 L971.9219,582.188 L964.7813,582.188 Z " fill="#000000"/><text fill="#000000" font-family="monospace" font-size="14" font-style="italic" font-weight="bold" lengthAdjust="spacing" textLength="64" x="989.25" y="581.12">AirPlane</text><line style="stroke:#181818;stroke-width:0.5;" x1="896" x2="1114" y1="591.688" y2="591.688"/><text fill="#000000" font-family="monospace" font-size="14" font-weight="bold" lengthAdjust="spacing" textLength="72" x="901" y="610.6539">_id_ TEXT</text><text fill="#000000" font-family="monospace" font-size="14" font-weight="bold" lengthAdjust="spacing" textLength="160" x="901" y="629.7219">_parent_ TEXT | NULL</text><text fill="#000000" font-family="monospace" font-size="14" font-weight="bold" lengthAdjust="spacing" textLength="208" x="901" y="648.7898">_parent_table_ TEXT | NULL</text><text fill="#000000" font-family="monospace" font-size="14" font-weight="bold" lengthAdjust="spacing" textLength="168" x="901" y="667.8577">_expires_ REAL | NULL</text><line style="stroke:#181818;stroke-width:1.0;stroke-dasharray:1.0,2.0;" x1="896" x2="1114" y1="675.9597" y2="675.9597"/><text fill="#000000" font-family="monospace" font-size="14" font-weight="bold" lengthAdjust="spacing" textLength="72" x="901" y="694.9256">name TEXT</text><text fill="#000000" font-family="monospace" font-size="14" font-weight="bold" lengthAdjust="spacing" textLength="144" x="901" y="713.9935">motors BLOB | NULL</text></g><!--MD5=[d7a207ccb41e446460556933800b2995]
class TMotor--><g id="elem_TMotor"><rect codeLine="78" fill="#F1F1F1" height="219.6113" id="TMotor" rx="2.5" ry="2.5" style="stroke:#181818;stroke-width:0.5;" width="220" x="640" y="270.188"/><ellipse cx="725.75" cy="286.188" fill="#B4A7E5" rx="11" ry="11" style="stroke:#181818;stroke-width:1.0;"/><path d="M721.7813,292.688 L721.7813,290.9849 L724.1406,290.7193 L724.1406,282.5161 L721.7813,282.2505 L721.7813,280.5474 L728.9219,280.5474 L728.9219,282.2505 L726.5,282.5161 L726.5,290.7193 L728.9219,290.9849 L728.9219,292.688 L721.7813,292.688 Z " fill="#000000"/><text fill="#000000" font-family="monospace" font-size="14" font-style="italic" font-weight="bold" lengthAdjust="spacing" textLength="40" x="746.25" y="291.62">Motor</text><line style="stroke:#181818;stroke-width:0.5;" x1="641" x2="859" y1="302.188" y2="302.188"/><text fill="#000000" font-family="monospace" font-size="14" font-weight="bold" lengthAdjust="spacing" textLength="72" x="646" y="321.1539">_id_ TEXT</text><text fill="#000000" font-family="monospace" font-size="14" font-weight="bold" lengthAdjust="spacing" textLength="160" x="646" y="340.2219">_parent_ TEXT | NULL</text><text fill="#000000" font-family="monospace" font-size="14" font-weight="bold" lengthAdjust="spacing" textLength="208" x="646" y="359.2898">_parent_table_ TEXT | NULL</text><text fill="#000000" font-family="monospace" font-size="14" font-weight="bold" lengthAdjust="spacing" textLength="168" x="646" y="378.3577">_expires_ REAL | NULL</text><line style="stroke:#181818;stroke-width:1.0;stroke-dasharray:1.0,2.0;" x1="641" x2="859" y1="386.4597" y2="386.4597"/><text fill="#000000" font-family="monospace" font-size="14" font-weight="bold" lengthAdjust="spacing" textLength="104" x="646" y="405.4256">ps       REAL</text><text fill="#000000" font-family="monospace" font-size="14" font-weight="bold" lengthAdjust="spacing" textLength="128" x="646" y="424.4935">ccm      INTEGER</text><text fill="#000000" font-family="monospace" font-size="14" font-weight="bold" lengthAdjust="spacing" textLength="104" x="646" y="443.5614">fuel     TEXT</text><text fill="#000000" font-family="monospace" font-size="14" font-weight="bold" lengthAdjust="spacing" textLength="104" x="646" y="462.6294">brand    TEXT</text><text fill="#000000" font-family="monospace" font-size="14" font-weight="bold" lengthAdjust="spacing" textLength="160" x="646" y="481.6973">_price   REAL | NULL</text></g><!--MD5=[6d63b12513d01e7a68885b7eaf7c96e2]
link Motor to Car--><g id="link_Motor_Car"><path codeLine="38" d="M256.03,126.688 C260.92,126.688 265.82,126.688 270.71,126.688 " fill="none" id="Motor-to-Car" style="stroke:#181818;stroke-width:1.0;"/><polygon fill="none" points="270.82,119.688,290.82,126.688,270.82,133.688,270.82,119.688" style="stroke:#181818;stroke-width:1.0;"/></g><!--MD5=[8f5fd588e4766afffcb7811d669085c0]
link Motor to Ship--><g id="link_Motor_Ship"><path codeLine="39" d="M157.38,198.418 C154.68,232.348 151.45,272.928 148.74,307.038 " fill="none" id="Motor-to-Ship" style="stroke:#181818;stroke-width:1.0;"/><polygon fill="none" points="155.69,307.948,147.12,327.328,141.73,306.838,155.69,307.948" style="stroke:#181818;stroke-width:1.0;"/></g><!--MD5=[348fed3f8b4d706c876afd4e6cc29a04]
link Motor to AirPlane--><g id="link_Motor_AirPlane"><path codeLine="40" d="M256.1,191.118 C261.97,196.028 267.66,201.078 273,206.188 C309.05,240.728 343.57,285.248 368.68,320.468 " fill="none" id="Motor-to-AirPlane" style="stroke:#181818;stroke-width:1.0;"/><polygon fill="none" points="374.47,316.528,380.22,336.928,363,324.568,374.47,316.528" style="stroke:#181818;stroke-width:1.0;"/></g><!--MD5=[669bcbe882229a42db191f8e07b55f72]
link TMotor to TCar--><g id="link_TMotor_TCar"><path codeLine="91" d="M860.07,380.188 C869.95,380.188 879.83,380.188 889.72,380.188 " fill="none" id="TMotor-to-TCar" style="stroke:#181818;stroke-width:1.0;"/><rect fill="#FFFFFF" fill-opacity="0.50196" height="10" style="stroke:#181818;stroke-width:1.5;" width="10" x="889.89" y="375.188"/></g><!--MD5=[c8c2e50a2e4a3b3e29a8c1149ae9503e]
link TMotor to TShip--><g id="link_TMotor_TShip"><path codeLine="92" d="M750,490.438 C750,508.418 750,526.938 750,544.538 " fill="none" id="TMotor-to-TShip" style="stroke:#181818;stroke-width:1.0;stroke-dasharray:7.0,7.0;"/><rect fill="#FFFFFF" fill-opacity="0.50196" height="10" style="stroke:#181818;stroke-width:1.5;" width="10" x="745" y="544.968"/></g><!--MD5=[92cec2370b41ae5d80e1f7e7590665dc]
link TMotor to TAirPlane--><g id="link_TMotor_TAirPlane"><path codeLine="93" d="M857.77,490.438 C879.36,512.328 901.72,534.988 922.3,555.848 " fill="none" id="TMotor-to-TAirPlane" style="stroke:#181818;stroke-width:1.0;stroke-dasharray:7.0,7.0;"/><rect fill="#FFFFFF" fill-opacity="0.50196" height="10" style="stroke:#181818;stroke-width:1.5;" width="10" x="920.85" y="554.448"/></g><!--MD5=[09646c7e0eb17637f2ebc0432d79abbc]
link Python to SQL--><g id="link_Python_SQL"><path d="M557.0369,163.7932 C557.3498,165.1985 557.6696,166.635 557.9959,168.1007 C563.2175,191.5521 570.1088,222.5011 577,253.4493 C583.8913,284.3974 590.7825,315.3446 596.0041,338.7922 C596.3304,340.2577 596.6502,341.6939 596.9631,343.0989 " fill="none" id="Python-to-SQL" style="stroke:#181818;stroke-width:3.0;"/><polygon fill="#181818" points="596.9631,343.0989,598.9112,333.4447,595.8763,338.2185,591.1025,335.1836,596.9631,343.0989" style="stroke:#181818;stroke-width:3.0;"/></g><!--MD5=[377bc0e90b6792d01437b718aa084148]
@startuml conversion_example

skinparam {
    DefaultFontName monospaced
    BackgroundColor #ffffff80
    ClassStereotypeFontStyle bold
    ClassFontStyle bold
    TitleFontSize 16
}

package "Python Classes" as Python #cfc {
    class Car {
        + brand: str
        + model: str
        + motor: Motor
        + build_date: Date
        - _passengers: list[str]
    }

    class Ship {
        + name: str
        + fuel_capacity: float
        - _motors: dict[str, Motor]
    }

    class AirPlane {
        + name
        + motors: list[Motor] | None
    }

    class Motor {
        + ps:     float
        + ccm:    int
        + fuel:   str
        + brand:  str
        - _price: float | None
    }

    Motor -right-|> Car
    Motor - -|> Ship
    Motor - -|> AirPlane
}

package "SQL Tables" as SQL #ffc {
    interface "Car" as TCar {
        _id_ TEXT
        _parent_ TEXT | NULL
        _parent_table_ TEXT | NULL
        _expires_ REAL | NULL
        ..
        brand TEXT
        model TEXT
        build_date NUMERIC
        _passengers BLOB
        motor TEXT
    }

    interface "Ship" as TShip {
        _id_ TEXT
        _parent_ TEXT | NULL
        _parent_table_ TEXT | NULL
        _expires_ REAL | NULL
        ..
        name TEXT
        fuel_capacity REAL
        _motors BLOB
    }

    interface "AirPlane" as TAirPlane {
        _id_ TEXT
        _parent_ TEXT | NULL
        _parent_table_ TEXT | NULL
        _expires_ REAL | NULL
        ..
        name TEXT
        motors BLOB | NULL
    }

    interface "Motor" as TMotor {
        _id_ TEXT
        _parent_ TEXT | NULL
        _parent_table_ TEXT | NULL
        _expires_ REAL | NULL
        ..
        ps       REAL
        ccm      INTEGER
        fuel     TEXT
        brand    TEXT
        _price   REAL | NULL
    }

    TMotor -right-# TCar
    TMotor ..# TShip
    TMotor ..# TAirPlane
}

Python -[thickness=3]up-> SQL

@enduml

PlantUML version 1.2022.7(Mon Aug 22 19:01:30 CEST 2022)
(GPL source distribution)
Java Runtime: OpenJDK Runtime Environment
JVM: OpenJDK 64-Bit Server VM
Default Encoding: UTF-8
Language: en
Country: US
--></g></svg>
