<?xml version="1.0" encoding="UTF-8" standalone="no"?><svg xmlns="http://www.w3.org/2000/svg" xmlns:xlink="http://www.w3.org/1999/xlink" contentStyleType="text/css" height="923px" preserveAspectRatio="none" style="width:399px;height:923px;background:#FFFFFF;" version="1.1" viewBox="0 0 399 923" width="399px" zoomAndPan="magnify"><defs/><g><rect fill="none" height="29.0679" id="_title" style="stroke:none;stroke-width:1.0;" width="127" x="134.5" y="15"/><text fill="#000000" font-family="sans-serif" font-size="14" font-weight="bold" lengthAdjust="spacing" textLength="117" x="139.5" y="34.9659">Schema Creation</text><rect fill="#F1F1F1" height="36.3441" rx="12.5" ry="12.5" style="stroke:#181818;stroke-width:0.5;" width="142" x="127.5" y="51.0679"/><text fill="#000000" font-family="sans-serif" font-size="12" lengthAdjust="spacing" textLength="122" x="137.5" y="73.896">Creation of data-class</text><rect fill="#F1F1F1" height="52.6882" rx="12.5" ry="12.5" style="stroke:#181818;stroke-width:0.5;" width="252" x="72.5" y="107.412"/><text fill="#000000" font-family="sans-serif" font-size="12" lengthAdjust="spacing" textLength="232" x="82.5" y="130.2401">Add Data-class to db schema using pyodb</text><text fill="#000000" font-family="sans-serif" font-size="12" lengthAdjust="spacing" textLength="91" x="82.5" y="146.5842">class annotation</text><rect fill="#F1F1F1" height="36.3441" rx="12.5" ry="12.5" style="stroke:#181818;stroke-width:0.5;" width="266" x="65.5" y="180.1003"/><text fill="#000000" font-family="sans-serif" font-size="12" lengthAdjust="spacing" textLength="246" x="75.5" y="202.9283">Add column with unqiue id to table definition</text><rect fill="#F1F1F1" height="52.6882" rx="12.5" ry="12.5" style="stroke:#181818;stroke-width:0.5;" width="212" x="92.5" y="236.4444"/><text fill="#000000" font-family="sans-serif" font-size="12" lengthAdjust="spacing" textLength="78" x="102.5" y="259.2725">Convert class'</text><text fill="#000000" font-family="sans-serif" font-size="12" font-weight="bold" lengthAdjust="spacing" textLength="62" x="183.5" y="259.2725">primitives</text><text fill="#000000" font-family="sans-serif" font-size="12" lengthAdjust="spacing" textLength="42" x="248.5" y="259.2725">to table</text><text fill="#000000" font-family="sans-serif" font-size="12" lengthAdjust="spacing" textLength="192" x="102.5" y="275.6166">rows with corresponding data type</text><rect fill="#F1F1F1" height="52.6882" rx="12.5" ry="12.5" style="stroke:#181818;stroke-width:0.5;" width="211" x="93" y="309.1326"/><text fill="#000000" font-family="sans-serif" font-size="12" lengthAdjust="spacing" textLength="44" x="103" y="331.9607">Convert</text><text fill="#000000" font-family="sans-serif" font-size="12" font-weight="bold" lengthAdjust="spacing" textLength="25" x="150" y="331.9607">lists</text><text fill="#000000" font-family="sans-serif" font-size="12" lengthAdjust="spacing" textLength="84" x="178" y="331.9607">containing only</text><text fill="#000000" font-family="sans-serif" font-size="12" lengthAdjust="spacing" textLength="96" x="103" y="348.3048">primitive types to</text><text fill="#000000" font-family="sans-serif" font-size="12" font-weight="bold" lengthAdjust="spacing" textLength="92" x="202" y="348.3048">stringified json</text><rect fill="#F1F1F1" height="52.6882" rx="12.5" ry="12.5" style="stroke:#181818;stroke-width:0.5;" width="184" x="106.5" y="381.8208"/><text fill="#000000" font-family="sans-serif" font-size="12" lengthAdjust="spacing" textLength="44" x="116.5" y="404.6489">Convert</text><text fill="#000000" font-family="sans-serif" font-size="12" font-weight="bold" lengthAdjust="spacing" textLength="29" x="163.5" y="404.6489">dicts</text><text fill="#000000" font-family="sans-serif" font-size="12" lengthAdjust="spacing" textLength="84" x="195.5" y="404.6489">containing only</text><text fill="#000000" font-family="sans-serif" font-size="12" lengthAdjust="spacing" textLength="69" x="116.5" y="420.993">primitives to</text><text fill="#000000" font-family="sans-serif" font-size="12" font-weight="bold" lengthAdjust="spacing" textLength="92" x="188.5" y="420.993">stringified json</text><rect fill="#F1F1F1" height="36.3441" rx="12.5" ry="12.5" style="stroke:#181818;stroke-width:0.5;" width="175" x="111" y="542.5091"/><text fill="#000000" font-family="sans-serif" font-size="12" lengthAdjust="spacing" textLength="155" x="121" y="565.3371">Add sub-class to db schema</text><rect fill="#F1F1F1" height="52.6882" rx="12.5" ry="12.5" style="stroke:#181818;stroke-width:0.5;" width="197" x="100" y="608.1811"/><text fill="#000000" font-family="sans-serif" font-size="12" lengthAdjust="spacing" textLength="177" x="110" y="631.0092">Convert class' primitive types to</text><text fill="#000000" font-family="sans-serif" font-size="12" lengthAdjust="spacing" textLength="58" x="110" y="647.3533">table rows</text><polygon fill="#F1F1F1" points="98.5,498.5091,298.5,498.5091,310.5,510.5091,298.5,522.5091,98.5,522.5091,86.5,510.5091,98.5,498.5091" style="stroke:#181818;stroke-width:0.5;"/><text fill="#000000" font-family="sans-serif" font-size="11" lengthAdjust="spacing" textLength="200" x="98.5" y="514.777">Class does not have a table definition?</text><polygon fill="#F1F1F1" points="198.5,680.8693,210.5,692.8693,198.5,704.8693,186.5,692.8693,198.5,680.8693" style="stroke:#181818;stroke-width:0.5;"/><rect fill="#F1F1F1" height="36.3441" rx="12.5" ry="12.5" style="stroke:#181818;stroke-width:0.5;" width="325" x="36" y="724.8693"/><text fill="#000000" font-family="sans-serif" font-size="12" lengthAdjust="spacing" textLength="305" x="46" y="747.6974">Define connection to parent (Link to parent's unique id)</text><polygon fill="#F1F1F1" points="95.5,454.5091,301.5,454.5091,313.5,466.5091,301.5,478.5091,95.5,478.5091,83.5,466.5091,95.5,454.5091" style="stroke:#181818;stroke-width:0.5;"/><text fill="#000000" font-family="sans-serif" font-size="11" lengthAdjust="spacing" textLength="206" x="95.5" y="470.777">class has members with complex types?</text><rect fill="#F1F1F1" height="52.6882" rx="12.5" ry="12.5" style="stroke:#181818;stroke-width:0.5;" width="206" x="95.5" y="803.2135"/><text fill="#000000" font-family="sans-serif" font-size="12" lengthAdjust="spacing" textLength="186" x="105.5" y="826.0415">Create column containing a list of</text><text fill="#000000" font-family="sans-serif" font-size="12" lengthAdjust="spacing" textLength="170" x="105.5" y="842.3857">all child tables (complex types)</text><rect fill="#F1F1F1" height="36.3441" rx="12.5" ry="12.5" style="stroke:#181818;stroke-width:0.5;" width="285" x="56" y="875.9017"/><text fill="#000000" font-family="sans-serif" font-size="12" lengthAdjust="spacing" textLength="265" x="66" y="898.7298">Save table definition to internal table definitions</text><line style="stroke:#181818;stroke-width:1.0;" x1="198.5" x2="198.5" y1="87.412" y2="107.412"/><polygon fill="#181818" points="194.5,97.412,198.5,107.412,202.5,97.412,198.5,101.412" style="stroke:#181818;stroke-width:1.0;"/><line style="stroke:#181818;stroke-width:1.0;" x1="198.5" x2="198.5" y1="160.1003" y2="180.1003"/><polygon fill="#181818" points="194.5,170.1003,198.5,180.1003,202.5,170.1003,198.5,174.1003" style="stroke:#181818;stroke-width:1.0;"/><line style="stroke:#181818;stroke-width:1.0;" x1="198.5" x2="198.5" y1="216.4444" y2="236.4444"/><polygon fill="#181818" points="194.5,226.4444,198.5,236.4444,202.5,226.4444,198.5,230.4444" style="stroke:#181818;stroke-width:1.0;"/><line style="stroke:#181818;stroke-width:1.0;" x1="198.5" x2="198.5" y1="289.1326" y2="309.1326"/><polygon fill="#181818" points="194.5,299.1326,198.5,309.1326,202.5,299.1326,198.5,303.1326" style="stroke:#181818;stroke-width:1.0;"/><line style="stroke:#181818;stroke-width:1.0;" x1="198.5" x2="198.5" y1="361.8208" y2="381.8208"/><polygon fill="#181818" points="194.5,371.8208,198.5,381.8208,202.5,371.8208,198.5,375.8208" style="stroke:#181818;stroke-width:1.0;"/><line style="stroke:#181818;stroke-width:1.0;" x1="198.5" x2="198.5" y1="578.8532" y2="608.1811"/><polygon fill="#181818" points="194.5,598.1811,198.5,608.1811,202.5,598.1811,198.5,602.1811" style="stroke:#181818;stroke-width:1.0;"/><line style="stroke:#181818;stroke-width:1.0;" x1="198.5" x2="198.5" y1="522.5091" y2="542.5091"/><polygon fill="#181818" points="194.5,532.5091,198.5,542.5091,202.5,532.5091,198.5,536.5091" style="stroke:#181818;stroke-width:1.0;"/><line style="stroke:#181818;stroke-width:1.0;" x1="310.5" x2="322.5" y1="510.5091" y2="510.5091"/><polygon fill="#181818" points="318.5,588.8532,322.5,598.8532,326.5,588.8532,322.5,592.8532" style="stroke:#181818;stroke-width:1.0;"/><line style="stroke:#181818;stroke-width:1.0;" x1="322.5" x2="322.5" y1="510.5091" y2="692.8693"/><line style="stroke:#181818;stroke-width:1.0;" x1="322.5" x2="210.5" y1="692.8693" y2="692.8693"/><polygon fill="#181818" points="220.5,688.8693,210.5,692.8693,220.5,696.8693,216.5,692.8693" style="stroke:#181818;stroke-width:1.0;"/><line style="stroke:#181818;stroke-width:1.0;" x1="198.5" x2="198.5" y1="660.8693" y2="680.8693"/><polygon fill="#181818" points="194.5,670.8693,198.5,680.8693,202.5,670.8693,198.5,674.8693" style="stroke:#181818;stroke-width:1.0;"/><line style="stroke:#181818;stroke-width:1.0;" x1="198.5" x2="198.5" y1="704.8693" y2="724.8693"/><polygon fill="#181818" points="194.5,714.8693,198.5,724.8693,202.5,714.8693,198.5,718.8693" style="stroke:#181818;stroke-width:1.0;"/><line style="stroke:#181818;stroke-width:1.0;" x1="198.5" x2="198.5" y1="478.5091" y2="498.5091"/><polygon fill="#181818" points="194.5,488.5091,198.5,498.5091,202.5,488.5091,198.5,492.5091" style="stroke:#181818;stroke-width:1.0;"/><line style="stroke:#181818;stroke-width:1.0;" x1="198.5" x2="198.5" y1="761.2135" y2="771.2135"/><line style="stroke:#181818;stroke-width:1.0;" x1="198.5" x2="373" y1="771.2135" y2="771.2135"/><polygon fill="#181818" points="369,632.5252,373,622.5252,377,632.5252,373,628.5252" style="stroke:#181818;stroke-width:1.0;"/><line style="stroke:#181818;stroke-width:1.0;" x1="373" x2="373" y1="466.5091" y2="771.2135"/><line style="stroke:#181818;stroke-width:1.0;" x1="373" x2="313.5" y1="466.5091" y2="466.5091"/><polygon fill="#181818" points="323.5,462.5091,313.5,466.5091,323.5,470.5091,319.5,466.5091" style="stroke:#181818;stroke-width:1.0;"/><line style="stroke:#181818;stroke-width:1.0;" x1="83.5" x2="24" y1="466.5091" y2="466.5091"/><polygon fill="#181818" points="20,618.5252,24,628.5252,28,618.5252,24,622.5252" style="stroke:#181818;stroke-width:1.0;"/><line style="stroke:#181818;stroke-width:1.0;" x1="24" x2="24" y1="466.5091" y2="783.2135"/><line style="stroke:#181818;stroke-width:1.0;" x1="24" x2="198.5" y1="783.2135" y2="783.2135"/><line style="stroke:#181818;stroke-width:1.0;" x1="198.5" x2="198.5" y1="783.2135" y2="803.2135"/><polygon fill="#181818" points="194.5,793.2135,198.5,803.2135,202.5,793.2135,198.5,797.2135" style="stroke:#181818;stroke-width:1.0;"/><line style="stroke:#181818;stroke-width:1.0;" x1="198.5" x2="198.5" y1="434.5091" y2="454.5091"/><polygon fill="#181818" points="194.5,444.5091,198.5,454.5091,202.5,444.5091,198.5,448.5091" style="stroke:#181818;stroke-width:1.0;"/><line style="stroke:#181818;stroke-width:1.0;" x1="198.5" x2="198.5" y1="855.9017" y2="875.9017"/><polygon fill="#181818" points="194.5,865.9017,198.5,875.9017,202.5,865.9017,198.5,869.9017" style="stroke:#181818;stroke-width:1.0;"/><!--MD5=[d18b1ff810f56d81953ce65640e45eda]
@startuml schema_creation

title Schema Creation

:Creation of data-class;

:Add Data-class to db schema using pyodb
class annotation;

:Add column with unqiue id to table definition;

:Convert class' **primitives** to table
rows with corresponding data type;

:Convert **lists** containing only
primitive types to **stringified json**;

:Convert **dicts** containing only
primitives to **stringified json**;

while (class has members with complex types?)
    if (Class does not have a table definition?) then
        :Add sub-class to db schema;

        :Convert class' primitive types to
        table rows;
    endif

    :Define connection to parent (Link to parent's unique id);
endwhile

:Create column containing a list of
all child tables (complex types);

:Save table definition to internal table definitions;

@enduml

PlantUML version 1.2022.7(Mon Aug 22 19:01:30 CEST 2022)
(GPL source distribution)
Java Runtime: OpenJDK Runtime Environment
JVM: OpenJDK 64-Bit Server VM
Default Encoding: UTF-8
Language: en
Country: US
--></g></svg>
